<svg xmlns="http://www.w3.org/2000/svg" width="34" height="34" viewBox="0 0 34 34">
    <path fill="none" fill-rule="evenodd" stroke="#868E97" d="M15.82 7.895l-.566 2.644-.277.088a6.64 6.64 0 0 0-1.052.436l-.258.134-2.27-1.47a.5.5 0 0 0-.625.066l-.979.979a.5.5 0 0 0-.066.625l1.47 2.27-.134.258a6.64 6.64 0 0 0-.436 1.052l-.088.277-2.644.565a.5.5 0 0 0-.395.49v1.383a.5.5 0 0 0 .395.489l2.644.565.088.277c.115.363.261.715.436 1.052l.134.258-1.47 2.27a.5.5 0 0 0 .066.625l.979.979a.5.5 0 0 0 .625.066l2.27-1.47.258.134a6.64 6.64 0 0 0 1.052.436l.277.088.565 2.644a.5.5 0 0 0 .49.395h1.383a.5.5 0 0 0 .489-.395l.565-2.644.277-.088a6.64 6.64 0 0 0 1.052-.436l.258-.134 2.27 1.47a.5.5 0 0 0 .625-.066l.979-.979a.5.5 0 0 0 .066-.625l-1.47-2.27.134-.258a6.64 6.64 0 0 0 .436-1.052l.088-.277 2.644-.565a.5.5 0 0 0 .395-.49v-1.383a.5.5 0 0 0-.395-.489l-2.644-.565-.088-.277a6.64 6.64 0 0 0-.436-1.052l-.134-.258 1.47-2.27a.5.5 0 0 0-.066-.625l-.979-.979a.5.5 0 0 0-.625-.066l-2.27 1.47-.258-.134a6.64 6.64 0 0 0-1.052-.436l-.277-.088-.565-2.644a.5.5 0 0 0-.49-.395h-1.383a.5.5 0 0 0-.489.395zM17 19.77a2.77 2.77 0 1 1 0-5.54 2.77 2.77 0 0 1 0 5.54z"/>
</svg>
